<svg id="SEVP_DHS_HomelandSecurity" xmlns="http://www.w3.org/2000/svg" width="296.428" height="86.558" viewBox="0 0 296.428 86.558">
  <path id="Path_23" data-name="Path 23" d="M97.771,20.584V10.2H93.909V7.8h12.384v2.4h-3.862V34.034h3.862v2.4H93.909v-2.4h3.862V23.38H83.123V34.034h3.995v2.4H74.6v-2.4h3.862V10.2H74.6V7.8H87.118v2.4H83.123V20.584Z" transform="translate(24.742 2.587)" fill="#005288"/>
  <path id="Path_24" data-name="Path 24" d="M99.1,24.42A10.927,10.927,0,1,0,110.02,13.9,10.718,10.718,0,0,0,99.1,24.42m4.927,0c0-5.327,2.264-8.656,6.126-8.656s6.126,3.2,6.126,8.656-2.264,8.656-6.126,8.656c-3.729,0-6.126-3.2-6.126-8.656" transform="translate(32.868 4.61)" fill="#005288"/>
  <path id="Path_25" data-name="Path 25" d="M116.566,32.41h3.6V16.43h-3.6v-2h7.857V16.7c3.063-1.6,5.327-2.8,7.857-2.8a5.043,5.043,0,0,1,4.927,3.329c2-1.6,5.327-3.329,7.99-3.329,3.729,0,5.726,2.4,5.726,6.658V32.41h3.462v2H143.2v-2h3.329V21.757c0-3.462-1.2-5.06-3.729-5.06a10.524,10.524,0,0,0-5.193,2.131v13.45h3.462v2H129.883v-2h3.329V22.289c0-3.329-.533-5.726-3.6-5.726-1.864,0-3.063.8-5.327,2.131v13.45h3.329v2H116.3V32.41Z" transform="translate(38.572 4.61)" fill="#005288"/>
  <path id="Path_26" data-name="Path 26" d="M163.777,22.822c-.8-5.726-3.862-8.922-8.922-8.922-5.46,0-9.055,3.862-9.055,9.987,0,5.593,3.729,11.186,10.387,11.186,2.663,0,4.261-.533,7.457-2.53l.4-2.131a12.842,12.842,0,0,1-6.658,2.264c-4.261,0-6.925-3.995-6.925-9.721h13.317Zm-13.183-1.864c.266-3.329,1.332-5.06,3.995-5.06,2.53,0,4.128,1.864,4.528,5.06Z" transform="translate(48.356 4.61)" fill="#005288"/>
  <path id="Path_27" data-name="Path 27" d="M161.2,35.13h3.462V7.7H161.2v-2h7.857V35.13h3.329v2H161.2Z" transform="translate(53.464 1.891)" fill="#005288"/>
  <path id="Path_28" data-name="Path 28" d="M172.465,18.561c2.4-1.465,4.128-2.131,5.593-2.131,2.663,0,3.329,1.6,3.329,3.995v2.663l-4.394,1.065c-3.862.932-5.593,2.663-5.593,5.593s2,5.193,4.661,5.193c1.731,0,3.462-1.2,5.859-2.93,1.065,2.131,2.131,2.93,3.6,2.93a7.761,7.761,0,0,0,4.395-1.6V32.011a11.819,11.819,0,0,1-2,.266c-1.2,0-2-1.2-2-3.2V20.958c0-4.394-2.4-7.058-6.259-7.058a12.036,12.036,0,0,0-7.59,3.329Zm8.922,6.392v5.327a4.869,4.869,0,0,1-3.2,1.465,2.56,2.56,0,0,1-2.53-2.663c0-1.864,1.6-3.063,5.726-4.128" transform="translate(56.847 4.61)" fill="#005288"/>
  <path id="Path_29" data-name="Path 29" d="M186.3,32.41h3.6V16.43h-3.6v-2h7.99V16.7a12.33,12.33,0,0,1,7.457-2.8c3.2,0,5.46,2,5.46,5.859V32.543h3.6v2H199.75v-2h3.2V20.691c0-2.663-1.465-4.128-3.6-4.128a8.369,8.369,0,0,0-4.927,2.131V32.543h3.329v2H186.433V32.41Z" transform="translate(61.788 4.61)" fill="#005288"/>
  <path id="Path_30" data-name="Path 30" d="M216.852,7.7h3.6V19.15a9.148,9.148,0,0,0-6.126-2.53c-4.794,0-8.922,4.661-8.922,10.254,0,6.259,4.528,10.254,11.452,10.254H228.3v-2h-3.6V5.7h-7.99v2Zm3.462,27.432H218.45c-4.661,0-8.123-2.264-8.123-8.389,0-4.927,2-7.724,5.327-7.724a6.985,6.985,0,0,1,4.661,2.264Z" transform="translate(68.123 1.891)" fill="#005288"/>
  <path id="Path_31" data-name="Path 31" d="M75.733,54.874h2.4v3.6c1.864,2.264,3.729,3.329,5.726,3.329a4.638,4.638,0,0,0,4.794-4.528c0-4.794-6.658-5.726-10.52-9.588a7.923,7.923,0,0,1-2.53-5.726A7.781,7.781,0,0,1,83.723,34.5a10.353,10.353,0,0,1,5.593,1.465V34.5h2.4v7.724h-2.4V39.161a6.081,6.081,0,0,0-5.06-2.663c-3.2,0-4.528,1.864-4.528,4.128,0,4.528,6.525,5.193,10.653,9.322a7.2,7.2,0,0,1,2.4,5.726c0,4.927-3.462,8.256-8.656,8.256a11.485,11.485,0,0,1-6.126-2v2.131H75.6V54.874Z" transform="translate(25.074 11.442)" fill="#005288"/>
  <path id="Path_32" data-name="Path 32" d="M108.577,49.822c-.8-5.726-3.862-8.922-8.922-8.922-5.46,0-9.055,3.862-9.055,9.987,0,5.593,3.729,11.186,10.52,11.186,2.663,0,4.261-.533,7.457-2.53l.4-2.131a12.842,12.842,0,0,1-6.658,2.264c-4.261,0-6.925-3.995-6.925-9.721h13.183Zm-13.183-2c.266-3.329,1.332-5.06,3.995-5.06,2.53,0,4.128,1.864,4.528,5.06Z" transform="translate(30.048 13.565)" fill="#005288"/>
  <path id="Path_33" data-name="Path 33" d="M122.579,47.159h-1.332a4.931,4.931,0,0,0-4.794-4.394c-3.2,0-5.327,2.4-5.327,7.457,0,5.859,2.264,9.055,6.392,9.055,3.2,0,5.193-2.131,5.593-2.131s.666.8.666,1.2c0,.8-3.329,3.729-7.724,3.729-5.593,0-9.854-4.794-9.854-11.053,0-5.859,3.995-10.121,9.588-10.121a11.132,11.132,0,0,1,5.06,1.2l.4-1.2h1.332Z" transform="translate(35.222 13.565)" fill="#005288"/>
  <path id="Path_34" data-name="Path 34" d="M120.2,41.333h7.99V55.049c0,2.53,1.332,4.128,3.6,4.128a9.135,9.135,0,0,0,4.927-2V43.2h-3.6v-2h7.99V59.177h3.6v2h-7.99v-2.4a10.734,10.734,0,0,1-7.191,2.93c-3.6,0-5.726-2-5.726-6.126V43.064h-3.6Z" transform="translate(39.866 13.665)" fill="#005288"/>
  <path id="Path_35" data-name="Path 35" d="M139.8,59.41h3.6V43.43h-3.6v-2h7.99v3.329h.133c2.4-2.93,3.6-3.862,4.927-3.862a4.147,4.147,0,0,1,3.329,1.864,15.229,15.229,0,0,1-1.864,4.927c-1.2-2.131-1.864-2.8-3.2-2.8s-2.264.8-3.329,2.4V59.41h3.6v2H139.8v-2Z" transform="translate(46.366 13.565)" fill="#005288"/>
  <path id="Path_36" data-name="Path 36" d="M161.99,36.666A2.663,2.663,0,1,1,159.327,34a2.514,2.514,0,0,1,2.663,2.663M154,61.7h3.462V45.721H154v-2h7.857V61.7h3.329v2H154Z" transform="translate(51.076 11.274)" fill="#005288"/>
  <path id="Path_37" data-name="Path 37" d="M164.1,44.557l7.191-7.457v5.46h5.593v2h-5.593V56.143c0,3.2.8,4.661,2.663,4.661s2.93-1.465,3.329-1.465c.266,0,.533.4.533.666,0,.533-1.731,3.329-5.194,3.329-3.6,0-5.593-2.4-5.593-6.658V44.69H164.1Z" transform="translate(54.426 12.305)" fill="#005288"/>
  <path id="Path_38" data-name="Path 38" d="M175.1,41.3h9.721v1.864h-2.53l4.661,12.784,5.06-12.784h-2.4V41.3h6.658v1.864h-2.4l-11.585,29.7h-3.729l5.593-12.518-6.392-17.178H175.1Z" transform="translate(58.074 13.698)" fill="#005288"/>
  <path id="Path_39" data-name="Path 39" d="M42.879,0A42.879,42.879,0,1,0,85.759,42.879,42.851,42.851,0,0,0,42.879,0" fill="#fff"/>
  <path id="Path_40" data-name="Path 40" d="M65.862,20.766c-.533.133-.932.266-1.465.4A28.885,28.885,0,1,1,10.865,36.213a29.616,29.616,0,0,1,4.528-15.58,5.565,5.565,0,0,1-1.332-.533,30.226,30.226,0,1,0,55.8,16.113,29.083,29.083,0,0,0-3.995-15.447" transform="translate(3.118 6.667)" fill="#c41230"/>
  <path id="Path_41" data-name="Path 41" d="M20,16.258A28.877,28.877,0,0,1,55.154,17.59c.533-.133,1.065-.266,1.731-.4A30.537,30.537,0,0,0,36.777,9.6,30.193,30.193,0,0,0,18.4,15.726c.266.133.533.133.666.266a1.925,1.925,0,0,1,.932.266" transform="translate(6.103 3.184)" fill="#c41230"/>
  <path id="Path_42" data-name="Path 42" d="M42.879,83.1A40.216,40.216,0,1,1,83.1,42.879,40.18,40.18,0,0,1,42.879,83.1m0-83.1A42.879,42.879,0,1,0,85.759,42.879,42.851,42.851,0,0,0,42.879,0" fill="#c0c2c4"/>
  <path id="Path_43" data-name="Path 43" d="M28.413,30.112a5.067,5.067,0,0,1-1.731-1.2,5.052,5.052,0,0,1-1.731-5.46c.266-1.2.8-1.864.666-3.063a3.824,3.824,0,0,0-1.065-1.731A12.564,12.564,0,0,0,19.757,16c-1.332-.4-5.193-1.6-6.925-3.2A2.185,2.185,0,0,0,14.3,15.6a2.923,2.923,0,0,0-2,1.065,4.621,4.621,0,0,0,3.063,1.6,6.636,6.636,0,0,0-1.332,1.465,6.519,6.519,0,0,0,3.6.8,5.412,5.412,0,0,0-1.2,1.332,8.97,8.97,0,0,0,3.729.932,7.12,7.12,0,0,0-1.731,1.731,14.391,14.391,0,0,0,3.6.666,4.814,4.814,0,0,0-2,2,8.84,8.84,0,0,0,3.462.8,6.148,6.148,0,0,0-1.2,2,11.741,11.741,0,0,0,3.063,0,6.077,6.077,0,0,0-1.065,2.8,5.7,5.7,0,0,0,2.93-.8,4.373,4.373,0,0,0,.133,2.264,4.73,4.73,0,0,0,1.2-.533,31.273,31.273,0,0,0-.133-3.6" transform="translate(4.079 4.245)" fill="#005288"/>
  <path id="Path_44" data-name="Path 44" d="M56.279,14.3c-1.731,1.6-4.394,2-7.324,2.93a13.877,13.877,0,0,0-5.46,2.663,2.561,2.561,0,0,0-1.065,2.131c0,1.2.266,1.731.266,3.462a4.128,4.128,0,0,1-.932,2.8,6.518,6.518,0,0,1-1.731,1.6c0,1.065-.133,2.131-.133,3.329a3.457,3.457,0,0,0,1.332.533,3.323,3.323,0,0,0,.133-2.264,7.389,7.389,0,0,0,2.93.8,6.077,6.077,0,0,0-1.065-2.8,11.779,11.779,0,0,0,3.063,0,7.948,7.948,0,0,0-1.2-2,8.84,8.84,0,0,0,3.462-.8,4.814,4.814,0,0,0-2-2,15.506,15.506,0,0,0,3.729-.666,7.12,7.12,0,0,0-1.731-1.731,16.752,16.752,0,0,0,3.729-.932,5.412,5.412,0,0,0-1.2-1.332,13.051,13.051,0,0,0,3.6-.8,6.636,6.636,0,0,0-1.332-1.465c2.93-.932,2.93-2.4,2.93-3.462" transform="translate(13.233 4.743)" fill="#005288"/>
  <path id="Path_45" data-name="Path 45" d="M50.032,17.728A25.7,25.7,0,0,0,35.517,13.2,25.037,25.037,0,0,0,22.2,16.929a3.833,3.833,0,0,1,1.731,2.53,4.705,4.705,0,0,1-.266,2.93c-.4,1.465-.666,2.8.266,4.261a5.245,5.245,0,0,0,3.462,2.264c1.465-.266,3.063-.4,4.661-.533a3.682,3.682,0,0,1,1.465-1.731,1.293,1.293,0,0,0,.533-1.731,2.1,2.1,0,0,0-.932-.932c-.4-.266-1.864-.4-1.864.533a1.745,1.745,0,0,1-.266-1.465c.133-.8,1.6-1.065,1.864-1.065-.266-.266-.133-.533.533-.8a11.655,11.655,0,0,1,2.131-.266,2.779,2.779,0,0,1,2.264.932,1.98,1.98,0,0,0,2.4.533,1.981,1.981,0,0,1-2,.932,20.673,20.673,0,0,1,.533,2.8,12.415,12.415,0,0,0,.266,1.864c1.864.133,3.6.4,5.193.666a3.528,3.528,0,0,0,2-1.332c.533-.666,1.065-1.465.932-3.729a19.947,19.947,0,0,1-.266-2.93c0-1.065,1.2-2.131,3.2-2.93" transform="translate(7.363 4.378)" fill="#005288"/>
  <path id="Path_46" data-name="Path 46" d="M30.4,20.029c.266.133.4.266.533.133l.133.133.133.133a2.25,2.25,0,0,0,.666-.266,1.782,1.782,0,0,1,.666-.133,5.535,5.535,0,0,0-2.131,0" transform="translate(10.082 6.604)" fill="#005288"/>
  <path id="Path_47" data-name="Path 47" d="M33.823,36.492l-.533-.266-.266-.8-.8-.266-.8-.8-.533.533-.8.133-.4.666-.533.666-.8.4-.533.932-.266.4-.533.4-.266-.266-.266.266-.4.8a3.527,3.527,0,0,1-.4-1.864c-.133-1.6-.266-3.729-.4-5.859A69.914,69.914,0,0,1,34.355,30.5v6.392c-.266,0-.4,0-.533-.4" transform="translate(8.391 10.116)" fill="#0078ae"/>
  <path id="Path_48" data-name="Path 48" d="M34.023,37.4H25.9a2.911,2.911,0,0,0,.4.666A4.366,4.366,0,0,0,28.83,39.8a31.335,31.335,0,0,1,3.063.932l.8.266a7.221,7.221,0,0,1,1.465.8V37.4Z" transform="translate(8.59 12.404)" fill="#5e9732"/>
  <path id="Path_49" data-name="Path 49" d="M40.39,35.73c.266-.133.533-.4.8-.533,0-.8.133-1.6.133-2.4-.133,0-.133.133-.266.266a2.805,2.805,0,0,1-3.462.133,1.771,1.771,0,0,0-1.065-.4,2.393,2.393,0,0,0-1.2.533,2.792,2.792,0,0,1-1.465.533,2.392,2.392,0,0,1-1.465-.4V35.73c.133,0,.133.133.266.133a1.859,1.859,0,0,0,1.2.4,1.438,1.438,0,0,0,.932-.4,3.924,3.924,0,0,1,1.731-.666,2.855,2.855,0,0,1,1.6.533,1.859,1.859,0,0,0,1.2.4,1.007,1.007,0,0,0,1.065-.4" transform="translate(10.746 10.878)" fill="#005288"/>
  <path id="Path_50" data-name="Path 50" d="M33.865,39.165a2.392,2.392,0,0,1-1.465-.4v2.8a3.021,3.021,0,0,1,1.465-.8l.8-.266a31.334,31.334,0,0,1,3.063-.932,4.73,4.73,0,0,0,1.2-.533,2.509,2.509,0,0,1-1.2-.533,1.771,1.771,0,0,0-1.065-.4,2.393,2.393,0,0,0-1.2.533,3.263,3.263,0,0,1-1.6.533" transform="translate(10.746 12.636)" fill="#005288"/>
  <path id="Path_51" data-name="Path 51" d="M40.39,33.03a1.384,1.384,0,0,1,1.065-.533v-.932A69.916,69.916,0,0,0,32.4,30.5v2.4c.133,0,.133.133.266.133a1.859,1.859,0,0,0,1.2.4,1.438,1.438,0,0,0,.932-.4,3.924,3.924,0,0,1,1.731-.666,2.855,2.855,0,0,1,1.6.533,1.859,1.859,0,0,0,1.2.4.965.965,0,0,0,1.065-.266" transform="translate(10.746 10.116)" fill="#0078ae"/>
  <path id="Path_52" data-name="Path 52" d="M32.4,36.066v2.4c.133,0,.133.133.266.133a1.859,1.859,0,0,0,1.2.4,1.439,1.439,0,0,0,.932-.4,3.924,3.924,0,0,1,1.731-.666,2.855,2.855,0,0,1,1.6.533,1.859,1.859,0,0,0,1.2.4,1.925,1.925,0,0,0,.932-.266,6.333,6.333,0,0,0,.932-2.8v-.133h-.133a2.805,2.805,0,0,1-3.462.133,1.771,1.771,0,0,0-1.065-.4,2.393,2.393,0,0,0-1.2.533,2.792,2.792,0,0,1-1.465.533,2.684,2.684,0,0,1-1.465-.4" transform="translate(10.746 11.741)" fill="#0078ae"/>
  <path id="Path_53" data-name="Path 53" d="M25.266,32.724c-.133-2.4-.266-4.794-.266-6.658A47.257,47.257,0,0,1,34.721,25a47.257,47.257,0,0,1,9.721,1.065c-.133,1.864-.133,4.261-.266,6.658a51.277,51.277,0,0,0-9.455-1.065,66.075,66.075,0,0,0-9.455,1.065" transform="translate(8.292 8.292)" fill="#005288"/>
  <path id="Path_54" data-name="Path 54" d="M26.7,27.332l.133-.533-.533-.266h.533V26l.266.533.533-.133-.4.4.266.4-.533-.266Z" transform="translate(8.723 8.623)" fill="#fff"/>
  <path id="Path_55" data-name="Path 55" d="M29.3,27l-.533-.266L28.5,27l.133-.4-.533-.266h.533V25.8l.266.4h.533l-.4.266Z" transform="translate(9.32 8.557)" fill="#fff"/>
  <path id="Path_56" data-name="Path 56" d="M30.965,26.8l-.4-.266-.4.4.266-.533-.533-.266h.533l.133-.533.133.533L31.232,26l-.4.4Z" transform="translate(9.917 8.491)" fill="#fff"/>
  <path id="Path_57" data-name="Path 57" d="M32.765,26.8l-.4-.4-.4.4.266-.533L31.7,26h.533l.133-.4.133.4h.533l-.4.266Z" transform="translate(10.514 8.491)" fill="#fff"/>
  <path id="Path_58" data-name="Path 58" d="M37.733,26.932l-.4.266.266-.4-.4-.4.4.133L37.866,26v.533H38.4L38,26.8l.133.533Z" transform="translate(12.338 8.623)" fill="#fff"/>
  <path id="Path_59" data-name="Path 59" d="M35.8,26.466l-.4-.266h.4l.266-.4v.533H36.6l-.4.266.133.4-.4-.266-.4.266Z" transform="translate(11.741 8.557)" fill="#fff"/>
  <path id="Path_60" data-name="Path 60" d="M34.033,26.4,33.5,26l.533.133L34.3,25.6v.533h.533l-.4.266.133.533-.4-.4-.4.266Z" transform="translate(11.111 8.491)" fill="#fff"/>
  <path id="Path_61" data-name="Path 61" d="M26.866,30.232,27,29.7l-.4-.266h.533V28.9l.266.533.4-.133-.4.266.266.533-.4-.266Z" transform="translate(8.822 9.585)" fill="#fff"/>
  <path id="Path_62" data-name="Path 62" d="M29.5,29.9l-.533-.266-.4.266.133-.4-.4-.266h.533l.133-.533.133.4h.533l-.4.266Z" transform="translate(9.386 9.519)" fill="#fff"/>
  <path id="Path_63" data-name="Path 63" d="M31.2,29.832l-.533-.4-.266.4.133-.533L30,29.033h.533l.133-.533.133.533h.533l-.4.266Z" transform="translate(9.95 9.452)" fill="#fff"/>
  <path id="Path_64" data-name="Path 64" d="M32.865,29.7l-.4-.266-.4.266.133-.4-.4-.4.533.133.133-.533.133.533.533-.133-.533.4Z" transform="translate(10.547 9.452)" fill="#fff"/>
  <path id="Path_65" data-name="Path 65" d="M37.666,29.832l-.533.266.266-.4-.4-.4.533.133L37.8,28.9v.533h.533L37.8,29.7l.133.533Z" transform="translate(12.271 9.585)" fill="#fff"/>
  <path id="Path_66" data-name="Path 66" d="M35.7,29.366l-.4-.266.533.133.133-.533.133.533h.533L36.1,29.5l.133.533-.4-.4-.4.266Z" transform="translate(11.708 9.519)" fill="#fff"/>
  <path id="Path_67" data-name="Path 67" d="M33.9,29.3l-.4-.266h.533l.133-.533.133.533h.533l-.4.266.133.533-.4-.4-.4.4Z" transform="translate(11.111 9.452)" fill="#fff"/>
  <path id="Path_68" data-name="Path 68" d="M27.8,28.532,27.933,28l-.533-.266h.533l.133-.533.133.533.533-.133-.4.266.266.533-.4-.266Z" transform="translate(9.088 9.021)" fill="#fff"/>
  <path id="Path_69" data-name="Path 69" d="M26.1,28.7l.133-.4-.533-.266h.533V27.5l.266.4.533-.133-.4.4.266.4-.533-.266Z" transform="translate(8.524 9.121)" fill="#fff"/>
  <path id="Path_70" data-name="Path 70" d="M30.265,28.2l-.4-.266-.4.4L29.6,27.8l-.4-.266h.4L29.733,27l.266.533.4-.133-.4.4Z" transform="translate(9.684 8.955)" fill="#fff"/>
  <path id="Path_71" data-name="Path 71" d="M31.965,28.1l-.4-.266-.4.4L31.3,27.7l-.4-.266h.533l.133-.533.133.533h.533l-.4.266Z" transform="translate(10.248 8.922)" fill="#fff"/>
  <path id="Path_72" data-name="Path 72" d="M33.665,28.232l-.4-.4-.4.4.266-.533-.533-.266h.533l.133-.533.133.533h.533l-.4.266Z" transform="translate(10.812 8.922)" fill="#fff"/>
  <path id="Path_73" data-name="Path 73" d="M38.466,28.432l-.533.133.266-.4-.4-.4.533.133.266-.4v.533h.533l-.4.266v.533Z" transform="translate(12.537 9.121)" fill="#fff"/>
  <path id="Path_74" data-name="Path 74" d="M36.5,28l-.4-.4.533.133.133-.533.133.533h.533L36.9,28l.133.533-.266-.4-.533.266Z" transform="translate(11.973 9.021)" fill="#fff"/>
  <path id="Path_75" data-name="Path 75" d="M34.8,27.8l-.4-.4.533.133L35.066,27l.133.533h.533L35.2,27.8l.133.533-.4-.4-.4.266Z" transform="translate(11.409 8.955)" fill="#fff"/>
  <path id="Path_76" data-name="Path 76" d="M58.407,25.058a2.954,2.954,0,0,0,1.6-3.729,2.883,2.883,0,0,0-3.862-1.465,2.835,2.835,0,1,0,2.264,5.193M56.676,20.93c1.2-.533,2.53-.266,2.93.533s-.4,2-1.6,2.53-2.53.266-2.93-.533.4-2,1.6-2.53" transform="translate(18.03 6.502)" fill="#005288"/>
  <path id="Path_77" data-name="Path 77" d="M56.066,27.5,55.4,25.232h.4l.133.533,4.794-1.2-.133-.666h.266l.932,3.329h.266v.4l-1.2.4-.133-.4.533-.266-.4-1.731-2,.533.4,1.332.533-.133.133.4-1.6.533-.133-.533.533-.133L58.463,26.3,56.2,26.83l.133.533Z" transform="translate(18.374 7.927)" fill="#005288"/>
  <path id="Path_78" data-name="Path 78" d="M6.231,22.133l-.266.666,3.063.932a1.979,1.979,0,0,1,1.6,1.6,3.687,3.687,0,0,1-.133,1.2c-.4,1.332-1.332,2-2.53,1.6l-3.329-.932-.133.666-.4-.133.666-2.264H5.3l-.133.666,3.063.932c.8.266,1.2.266,1.6-.133a2.911,2.911,0,0,0,.4-.666,1.5,1.5,0,0,0-1.065-2l-3.2-.932L5.7,24l-.4-.133L5.964,22Z" transform="translate(1.36 7.296)" fill="#005288"/>
  <path id="Path_79" data-name="Path 79" d="M10.078,23.312a.6.6,0,1,1-.266-.8.64.64,0,0,1,.266.8" transform="translate(2.972 7.449)" fill="#005288"/>
  <path id="Path_80" data-name="Path 80" d="M11.83,22.493l-.266.4-1.332-.8.266-.4.533.266a1.79,1.79,0,0,0,.932-.8.867.867,0,0,0-.266-1.2c-.4-.133-.666-.133-1.6.4s-.932.533-1.332.533A3.309,3.309,0,0,1,7.7,20.762,1.533,1.533,0,0,1,7.169,18.5a1.6,1.6,0,0,1,.666-.666L7.569,17.7l.266-.4,1.332.666-.266.4-.4-.133a1.094,1.094,0,0,0-.666.666A.72.72,0,0,0,8.1,19.963c.266.133.533,0,1.332-.4a2.059,2.059,0,0,1,.8-.4,1.689,1.689,0,0,1,.8-.133,1.436,1.436,0,0,1,.932.266,1.744,1.744,0,0,1,.666,2.264,3.111,3.111,0,0,1-.932.932Z" transform="translate(2.286 5.738)" fill="#005288"/>
  <path id="Path_81" data-name="Path 81" d="M12.565,18.433a.533.533,0,1,1-.533-.533.573.573,0,0,1,.533.533" transform="translate(3.814 5.937)" fill="#005288"/>
  <path id="Path_82" data-name="Path 82" d="M23.726,11.393l-3.6,1.864-.133-.4.533-.266L18.266,8.2l-.533.266L17.6,8.2l3.063-1.6-.133-.266.4-.133.666,1.2-.4.133L20.929,7l-1.6.8.932,1.864L21.462,9,21.2,8.464l.4-.133.8,1.465-.4.266-.266-.533-1.2.533.932,1.864,1.6-.8-.266-.533.4-.266Z" transform="translate(5.837 2.056)" fill="#005288"/>
  <path id="Path_83" data-name="Path 83" d="M25.828,10.451l-2.4.8v-.266l.666-.266L22.5,6.057l-.666.266-.133-.4,2.4-.8c1.065-.266,1.864,0,2.131.932a1.71,1.71,0,0,1-1.2,2.131c-.133,0-.266.133-.4.133l-.133-.4h.266c.533-.133.666-.666.533-1.465-.266-.8-.666-1.065-1.332-.932l-.533.133,1.6,4.661.666-.266Z" transform="translate(7.197 1.667)" fill="#005288"/>
  <path id="Path_84" data-name="Path 84" d="M31.526,8.927h-.4L28.064,4l-.533.133-1.2,5.726-.533.133v.4l1.731-.266v-.4l-.666.133.266-1.465,2-.4.8,1.332H29.4v.4l2.131-.4Zm-4.261-1.2L27.8,5.465l1.2,2Z" transform="translate(8.557 1.327)" fill="#005288"/>
  <path id="Path_85" data-name="Path 85" d="M35.793,8.993h-.4c-.133,0-.266-.133-.533-.4L33.8,6.73a1.534,1.534,0,0,0,.8-2.53,1.924,1.924,0,0,0-1.465-.4H30.6v.266h.666V8.993H30.6v.4H33v-.4h-.666V6.863H32.6l1.332,2c.133.4.266.533.8.533h1.065ZM32.331,4.2h.533c.666,0,.932.4.932,1.065a1.076,1.076,0,0,1-.932,1.2h-.533Z" transform="translate(10.149 1.26)" fill="#005288"/>
  <path id="Path_86" data-name="Path 86" d="M38.163,10.092,35.5,9.559V9.293l.8.133.8-4.794L35.633,4.5l-.133.666-.4-.133L35.366,3.7h.4v.266l3.995.666V4.366l.533.133-.266,1.465-.533-.133.133-.666L38.163,4.9l-.8,4.661.8.133Z" transform="translate(11.641 1.227)" fill="#005288"/>
  <path id="Path_87" data-name="Path 87" d="M45.025,12.424l-2.4-.932.133-.266.666.266,1.332-3.462-3.2,3.2L41.03,6.7l-1.2,3.329.666.266-.133.4-1.864-.8.133-.266.666.266L41.03,5.233l-.666-.266L40.5,4.7l1.465.533.4,4.394,3.063-3.063,1.6.666-.133.266-.666-.266-1.731,4.661.666.266Z" transform="translate(12.769 1.559)" fill="#005288"/>
  <path id="Path_88" data-name="Path 88" d="M47.362,14.358,43.9,12.094l.266-.266.533.4,2.663-4.261L46.83,7.7l.133-.4,3.063,2V9.031l.4.266-.666,1.2-.4-.266.4-.533-1.6-.932L47.1,10.5l1.2.666.266-.533.4.266-.932,1.465-.4-.266.4-.533-1.2-.666-1.065,1.731,1.465,1.065.4-.533.4.133Z" transform="translate(14.56 2.421)" fill="#005288"/>
  <path id="Path_89" data-name="Path 89" d="M18.46,13.911l-.533.4-2.8-3.729.533-.4a2.267,2.267,0,0,1,2.93.8c.8,1.065.8,2.4-.133,2.93m1.065-3.729a2.788,2.788,0,0,0-3.995-.533l-2.131,1.6.266.266.533-.4,2.93,3.995c.133,0,.266.133.4.133l1.465-1.065a2.96,2.96,0,0,0,1.2-1.731,3.486,3.486,0,0,0-.666-2.264" transform="translate(4.444 3.001)" fill="#005288"/>
  <path id="Path_90" data-name="Path 90" d="M53.625,12.363l-.266.266.533.4-2.4,2.663L52.16,10.9l-1.2-1.2-.4.4.4.4v.533L47.9,14.361l-.533-.533-.266.266,1.465,1.332.266-.266-.533-.533,2.53-2.8L50.3,16.225c.533-.133,1.065-.266,1.731-.4h.133l2.131-2.4.533.533.266-.266Z" transform="translate(15.621 3.217)" fill="#005288"/>
  <path id="Path_91" data-name="Path 91" d="M57.892,17.329l-.133.133-2.53-3.329L55.362,14l-.266-.4-1.2.932.266.4.533-.4.932,1.2L51.9,18.66l-.133-.266a.465.465,0,0,0-.266.133l1.465,1.864.266-.266-.666-.666,3.862-2.93.932,1.2-.666.4.266.4,1.2-.932Z" transform="translate(17.081 4.511)" fill="#005288"/>
  <path id="Path_92" data-name="Path 92" d="M37.88,61.992l-.4.133-.266-1.465.4-.133.133.666a1.294,1.294,0,0,0,1.2.133c.533-.133.8-.533.666-.932s-.4-.533-1.332-.932-1.065-.4-1.332-.666c-.266-.133-.4-.533-.533-.932A1.485,1.485,0,0,1,37.746,56a1.126,1.126,0,0,1,.932,0v-.266l.4-.133.266,1.465-.4.133-.133-.533a2.6,2.6,0,0,0-.932-.133,1,1,0,0,0-.666.932c.133.4.266.533,1.2.8a5.237,5.237,0,0,0,.8.266c.266.133.4.266.666.4a1.151,1.151,0,0,1,.4.8,1.661,1.661,0,0,1-1.332,2,2.269,2.269,0,0,1-1.332,0Z" transform="translate(12.058 18.44)" fill="#005288"/>
  <path id="Path_93" data-name="Path 93" d="M45.559,59.76,41.7,61.225l-.133-.4.666-.133-1.864-4.661-.533.266-.133-.4,3.2-1.2v-.266l.4-.133.533,1.2-.533.266-.133-.666-1.731.666.8,1.864,1.2-.4-.133-.666.4-.133.666,1.6-.533.133-.133-.533-1.332.533.8,2,1.731-.8-.266-.533.533-.133Z" transform="translate(13.167 18.009)" fill="#005288"/>
  <path id="Path_94" data-name="Path 94" d="M49.775,56.994a3.615,3.615,0,0,1-1.332,1.2,2.843,2.843,0,0,1-4.128-.932,2.806,2.806,0,0,1,1.065-3.995,5.565,5.565,0,0,1,1.332-.533l-.133-.266.4-.266.8,1.332-.4.266-.4-.533c-.533,0-.932,0-1.2.266a2.126,2.126,0,0,0-.533,3.063A2.313,2.313,0,0,0,48.31,57.66a1.874,1.874,0,0,0,.8-.932l-.4-.533.4-.266Z" transform="translate(14.544 17.313)" fill="#005288"/>
  <path id="Path_95" data-name="Path 95" d="M51.461,49.166l-.533.533,2.131,2.4a1.891,1.891,0,0,1,.533,2.131,2.071,2.071,0,0,1-.8,1.065c-1.065.932-2.264.932-2.93.133L47.6,52.895l-.533.4-.266-.266,1.731-1.6.266.266-.533.4,2.131,2.4c.533.666.932.8,1.465.666.266,0,.4-.133.666-.4a1.446,1.446,0,0,0,.133-2.264l-2.131-2.4L50,50.631l-.266-.4L51.194,48.9Z" transform="translate(15.522 16.218)" fill="#005288"/>
  <path id="Path_96" data-name="Path 96" d="M59.026,46.063l-1.2,2.131-.266-.133.266-.666-4.261-2.264-.4.533-.266-.133L54.1,43.4l.266.133-.266.533,4.261,2.4.266-.533Z" transform="translate(17.545 14.394)" fill="#005288"/>
  <path id="Path_97" data-name="Path 97" d="M60.791,42.4l-.932,2.53-.4-.133.4-.8-4.528-1.6L54.8,43.728l.666.266-.133.4L54,43.861l.133-.4.266.133,1.332-3.862L55.6,39.6l.133-.4,1.332.533-.133.4-.666-.266-.533,1.465,4.528,1.6.266-.666Z" transform="translate(17.91 13.001)" fill="#005288"/>
  <path id="Path_98" data-name="Path 98" d="M61.892,37.4l-.533,2.4-.4-.133.133-.533L58.829,38.6l-2.8,1.2-.133.533h-.4l.533-2.4H56.3l-.133.666,2.131-.8-1.6-1.465L56.565,37h-.4l.4-2h.4l-.133.666,2,1.864,2.53.533.133-.666Z" transform="translate(18.407 11.608)" fill="#005288"/>
  <path id="Path_99" data-name="Path 99" d="M51.9,48.177l.266-.4a.943.943,0,0,1,1.465-.133A.974.974,0,0,1,53.9,49.11l-.266.4Zm5.859,0-.266.266c-.133.133-.266.133-.533.133l-2.264-.133a1.432,1.432,0,0,0-.533-1.864,1.358,1.358,0,0,0-1.2-.266c-.4,0-.8.266-1.2.932l-1.465,2,.266.266.4-.533,3.995,2.93-.4.533.266.266,1.465-1.864-.266-.266-.4.533L53.9,49.775l.133-.133,2.4.133c.533,0,.666,0,.932-.4l.666-.932Z" transform="translate(16.683 15.343)" fill="#005288"/>
  <path id="Path_100" data-name="Path 100" d="M5.5,42.657l-.666-2.264.4-.133.133.666,2.264-.533-.666-2.8L4.7,38.13l.133.666-.266.133-.666-2.4h.4l.133.533L9.227,36l-.133-.666.4-.133.533,2.4h-.4l-.133-.533-2.131.4.666,2.8,2.131-.533-.133-.666h.4l.533,2.264-.4.133-.133-.666-4.794,1.2.133.533Z" transform="translate(1.293 11.674)" fill="#005288"/>
  <path id="Path_101" data-name="Path 101" d="M9.926,46.131A2.819,2.819,0,0,0,11.391,42.4a2.872,2.872,0,0,0-3.862-1.332A2.778,2.778,0,0,0,6.064,44.8a2.872,2.872,0,0,0,3.862,1.332M8.062,42.136c1.2-.533,2.53-.266,2.93.4.4.8-.4,2-1.6,2.53s-2.53.266-2.93-.4a2.388,2.388,0,0,1,1.6-2.53" transform="translate(1.926 13.527)" fill="#005288"/>
  <path id="Path_102" data-name="Path 102" d="M11.528,53.122l-1.465-2,.266-.266.4.666,3.063-2.264-4.528.932L11.395,46.2l-2.93,2.131.4.533-.266.266-1.2-1.6.4-.266.4.533L12.194,45l-.533-.666.4-.133.8,1.2-2,3.995,4.261-.932,1.065,1.332-.4.266-.4-.533-3.995,2.8.4.666Z" transform="translate(2.454 14.659)" fill="#005288"/>
  <path id="Path_103" data-name="Path 103" d="M14.663,55.925l-3.063-2.8.266-.266.533.533,3.329-3.729-.533-.4L15.462,49l2.53,2.4.266-.133.266.266L17.592,52.6l-.266-.4.4-.4-1.332-1.2-1.332,1.465.932.932.4-.4.4.266-1.2,1.2-.266-.266.4-.4-1.065-.932L13.2,53.927l1.465,1.332.4-.533.266.4Z" transform="translate(3.847 16.251)" fill="#005288"/>
  <path id="Path_104" data-name="Path 104" d="M18.529,58.525,15.2,56.261l.133-.266.533.4,2.8-4.128-.533-.4.133-.266,2,1.332-.133.266-.533-.266-2.663,3.995,1.465.932.4-.533.4.266Z" transform="translate(5.041 17.114)" fill="#005288"/>
  <path id="Path_105" data-name="Path 105" d="M23.627,60.359l-.266-.133.4-5.859-.533-.266-4.261,3.995-.533-.133-.133.266,1.6.666.133-.266-.666-.266L20.431,57.3l1.864.8-.133,1.465-.533-.266-.133.266,1.864.8ZM20.963,57.03l1.731-1.6L22.561,57.7Z" transform="translate(6.069 17.943)" fill="#005288"/>
  <path id="Path_106" data-name="Path 106" d="M27.994,61.991l-.666-.133-1.864-4.794-.932,3.6.666.266v.266l-2-.4.133-.4L24,60.66l1.065-4.394-.133-.533-.666-.133.133-.4,1.6.4,1.864,4.528.8-3.462-.666-.133.133-.4,1.864.4-.133.4-.666-.133Z" transform="translate(7.695 18.308)" fill="#005288"/>
  <path id="Path_107" data-name="Path 107" d="M33.194,59.23a2.117,2.117,0,0,1-2,2.264h-.666l.133-4.661h.666a2.333,2.333,0,0,1,1.864,2.4m-1.6-2.8L28.933,56.3v.4H29.6l-.133,4.927H28.8v.4l2.663.133h0a2.615,2.615,0,0,0,2-.666,2.4,2.4,0,0,0,.932-2,2.8,2.8,0,0,0-2.8-3.063" transform="translate(9.552 18.672)" fill="#005288"/>
  <path id="Path_108" data-name="Path 108" d="M66.3,37.719l-2.131.666.533.133-.8.4c.133-.4.133-.8.266-1.332l1.2-.932v.533L66.7,35.455l-2,.932.533.133-.932.8c0-.533.133-1.065.133-1.6l1.2-1.2.133.533,1.065-1.864-1.864,1.2H65.5l-1.2.8V34.124A27.056,27.056,0,0,0,63.235,26.8a7.3,7.3,0,0,1-2.8-.4,3.554,3.554,0,0,1,2.131,2.93,4.718,4.718,0,0,1-3.6-.8,5.114,5.114,0,0,1,1.465,3.063,4.65,4.65,0,0,1-3.2-1.332,4.859,4.859,0,0,1,1.065,3.2,4.259,4.259,0,0,1-2.8-1.6,5.784,5.784,0,0,1,.666,3.2,4.626,4.626,0,0,1-2.663-1.332,8.738,8.738,0,0,1,.533,3.063,3.877,3.877,0,0,1-2.53-2,5.976,5.976,0,0,1,.4,2.93,3.635,3.635,0,0,1-2.131-1.864,4.659,4.659,0,0,1,.266,2.93,3.492,3.492,0,0,1-1.2-.666v.533a4.865,4.865,0,0,1-.4,2l.266.266a4.532,4.532,0,0,0,1.731,1.2c-.266,0-.533.266-.932.266.4.4,1.065.533,1.6.932-.4,0-.4.266-.932.266a2.9,2.9,0,0,0,2,.666,2.841,2.841,0,0,0,1.065,0,3.18,3.18,0,0,1,1.2.266l4.528-9.322-.533.133,1.465-1.6-.4,2.131-.266-.4-4.661,9.322a.489.489,0,0,1,.133.4h0l.133-.133h0L62.3,39.184l-.533-.133,2-.932L62.436,39.85v-.533l-7.324,5.859a.583.583,0,0,1,.4.133c.133.266.133.266,0,.666-.133.266-.133.4-.4.533h-.266a.13.13,0,0,1,.133.133c0,.133.133.266-.133.533s-.533.4-.666.266a.13.13,0,0,1-.133-.133c0,.133,0,.133.133.266,0,.266-.133.4-.4.533-.533.133-.8.133-.8-.133-.266-.4-.133-.932,0-.932v.533a.425.425,0,0,0,.4.4c.133,0,.4-.133.533-.133a.25.25,0,0,0,0-.4c0-.133,0-.133-.133-.266.133,0,.266.133.4.266a.25.25,0,0,0,.4,0c.133-.133.266-.266.266-.4.133-.266-.266-.533-.4-.533.4,0,.4.133.666.133s.4-.533.4-.666a.286.286,0,0,0-.266-.266h-.4v.133c0,.133-.133.266-.266.4h-.133c.133-.133.266-.666,0-.8a1.893,1.893,0,0,0-.8-.266h-1.2a.425.425,0,0,0-.4.4c-.133.4-.133.8-.666.533-.533-.4-1.465-.266-2.4-.666a8.488,8.488,0,0,1,.266.932c-.932-.266-1.065-.666-1.864-.932.133.266.133.533.266.8-.666-.133-1.332-.8-2.264-1.065h-.133a3.388,3.388,0,0,1-.932.266,6.762,6.762,0,0,1,1.465,2.93,3.567,3.567,0,0,1-1.2-.266,5.344,5.344,0,0,1,.4,2,7.261,7.261,0,0,1-1.332-.533,11.455,11.455,0,0,1-.133,2.131A3.783,3.783,0,0,1,42.2,50.636a12.468,12.468,0,0,1-.533,2.131,6.465,6.465,0,0,1-1.2-1.332A7.974,7.974,0,0,1,39.4,53.566a5.038,5.038,0,0,1-1.065-2,5.218,5.218,0,0,1-1.065,1.2,6.268,6.268,0,0,1-.533-2.131A5.912,5.912,0,0,1,35.4,51.7a12.186,12.186,0,0,1-.133-2.131,7.261,7.261,0,0,1-1.332.533,4.865,4.865,0,0,1,.4-2,3.567,3.567,0,0,1-1.2.266,6.752,6.752,0,0,1,1.6-2.93h0c-.266-.133-.533-.133-.8-.266h-.133c-.932.266-1.6.932-2.264,1.065.133-.266.133-.533.266-.8-.8.266-1.065.8-1.864.932.133-.4.133-.533.266-.932a12.539,12.539,0,0,1-2.4.8c-.533.133-.533-.666-.8-.932-.133-.133-.533-.133-.666-.133h-1.2a1.126,1.126,0,0,0-.8.266.793.793,0,0,0,0,.932c.133.133,0,.133-.133,0-.266-.133-.266-.266-.266-.4h-.4a.286.286,0,0,0-.266.266.909.909,0,0,0,.4.666c.266,0,.4-.133.666-.133-.133.133-.533.266-.4.533,0,.133.133.266.266.4a.25.25,0,0,0,.4,0c.133-.133.266-.133.4-.266-.133.133-.133.133-.133.266v.4a.8.8,0,0,0,.533.133.425.425,0,0,0,.4-.4v-.533a.773.773,0,0,1,0,.932.583.583,0,0,1-.8,0c-.266-.133-.533-.266-.4-.533,0-.133,0-.133.133-.266l-.133.133c-.133.133-.4,0-.666-.266-1.332,0-1.2-.133-1.2-.133a.13.13,0,0,1,.133-.133H22.62c-.266,0-.266-.133-.4-.533s-.133-.4,0-.666a1.094,1.094,0,0,1,.932-.133,1.01,1.01,0,0,1,.266-.533,1.618,1.618,0,0,1,1.2-.266h1.065a5.2,5.2,0,0,0,2.264-.932c-.4,0-.533-.266-.932-.266.533-.533,1.2-.533,1.6-.932a1.138,1.138,0,0,1-.8-.4,5.694,5.694,0,0,0,1.731-1.2s.133-.266.266-.266a5.343,5.343,0,0,1-.4-2v-.533a4.065,4.065,0,0,1-1.2.666,4.6,4.6,0,0,1,.266-2.93,3.5,3.5,0,0,1-2.131,2,4.543,4.543,0,0,1,.266-2.93,4.222,4.222,0,0,1-2.53,2,6.836,6.836,0,0,1,.4-3.2,4.626,4.626,0,0,1-2.663,1.332,7.258,7.258,0,0,1,.666-3.2,5.114,5.114,0,0,1-3.063,1.465,11.005,11.005,0,0,1,1.065-2.93,5.515,5.515,0,0,1-3.063,1.2A5.954,5.954,0,0,1,18.891,28.8a5.466,5.466,0,0,1-3.462.932,4.245,4.245,0,0,1,1.864-2.8,7.422,7.422,0,0,1-2.663.266,25.372,25.372,0,0,0-1.065,7.191,11.517,11.517,0,0,1-1.332-.932c.133.533.133.8.266,1.465a2.512,2.512,0,0,0,1.332,2.264c0,.4.133.666.133,1.065a3.81,3.81,0,0,0-2.264-.533c.666,2,1.465,2.131,2.663,2.264,0,.133.133.4.133.533a3.953,3.953,0,0,0-2.131.133,3.128,3.128,0,0,0,2.663,1.6h0a4.305,4.305,0,0,0-2.264.4,3.569,3.569,0,0,0,2.8,1.065c0,.133.133.266.133.4a3.634,3.634,0,0,0-1.731.932,4.6,4.6,0,0,0,2.264.266h0a2.346,2.346,0,0,0-.932,1.6c.533-.133,1.065-.133,1.6-.266.133.266.266.4.4.666a3.2,3.2,0,0,0-.266,2,4.73,4.73,0,0,0,1.2-.533.692.692,0,0,1,.266.533,3.026,3.026,0,0,0,.666,2.4c.266-.266.4-.533.533-.666,1.2-1.731.4-3.063.533-4.128v-.133c.133,1.332,1.332,2.663-.133,4.261l-.133.133a25.14,25.14,0,0,0,19.176,8.789A25.512,25.512,0,0,0,62.969,43.445l1.2-.533-.133.533,1.6-1.465-2.131.4.4.266-.932.4c.133-.4.266-.932.4-1.332l1.2-.666v.533l1.465-1.6-2,.133.533.133-1.065.533c.133-.533.266-.932.4-1.465l.932-.666v.533Z" transform="translate(3.88 8.756)" fill="#005288"/>
  <path id="Path_109" data-name="Path 109" d="M44.5,42.79h.4a.286.286,0,0,1,.266.266.909.909,0,0,1-.4.666c-.266,0-.4-.133-.666-.133.133.133.533.266.4.533,0,.133-.133.266-.266.4a.25.25,0,0,1-.4,0c-.133-.133-.266-.133-.4-.266a.412.412,0,0,1,.133.266v.4a.8.8,0,0,1-.533.133.425.425,0,0,1-.4-.4v-.533a.773.773,0,0,0,0,.932.746.746,0,0,0,.8.133c.266-.133.533-.133.4-.533,0-.133,0-.133-.133-.266l.133.133c.133.133.4,0,.666-.266s.266-.533.133-.533a.13.13,0,0,0-.133-.133h.266c.266,0,.266-.133.4-.533s.133-.4,0-.666c0-.133-.266-.133-.4-.133L52.093,36.4v.533L53.425,35.2l-2,.932.533.133L44.5,42.125h0v.4h0" transform="translate(14.09 11.674)" fill="#fff"/>
  <path id="Path_110" data-name="Path 110" d="M43.966,43.153l4.661-9.322.133.533.533-2.264-1.465,1.731.533-.133L43.7,43.02" transform="translate(14.494 10.646)" fill="#fff"/>
  <path id="Path_111" data-name="Path 111" d="M43,41.225a1.979,1.979,0,0,1,.133.8c.533-.133.533-.533.666-.8a.849.849,0,0,0-.8,0" transform="translate(14.261 13.64)" fill="#fff"/>
  <path id="Path_112" data-name="Path 112" d="M43.166,41.3c-.266,0-.4-.133-.4-.266s-.266-.266-.266,0,0,.266.133.4a1.327,1.327,0,0,0,.533-.133" transform="translate(14.096 13.56)" fill="#fff"/>
  <path id="Path_113" data-name="Path 113" d="M43.066,42a.489.489,0,0,1-.133-.4c0,.133-.133.533-.133.666a.13.13,0,0,0,.133.133.8.8,0,0,0,.533-.133c-.266-.133-.4-.133-.4-.266" transform="translate(14.195 13.797)" fill="#fff"/>
  <path id="Path_114" data-name="Path 114" d="M48.029,34.932h.533l-2.93,4.394a13.44,13.44,0,0,0-.932,2h0L48.695,35.2l.133.533.666-2.131Z" transform="translate(14.825 11.144)" fill="#fff"/>
  <path id="Path_115" data-name="Path 115" d="M46.632,39.423l5.193-6.658.133.533.932-2L51.16,32.632h.533L46.9,38.624c-.4.533-.8,1.2-1.2,1.731h0a3.112,3.112,0,0,0,.932-.932" transform="translate(15.157 10.381)" fill="#fff"/>
  <path id="Path_116" data-name="Path 116" d="M45.9,40.492c.4-.4.932-.666,1.332-1.065l4.394-3.995v.533l1.2-1.864L50.96,35.165l.533.133L47.1,39.293l-1.2,1.2" transform="translate(15.223 11.31)" fill="#fff"/>
  <path id="Path_117" data-name="Path 117" d="M51.192,38.4l-6.126,3.063c-.133.133-.133.133-.266.133l.133.133h0l6.392-3.2-.133.533,1.6-1.465-2.131.533Z" transform="translate(14.858 12.471)" fill="#fff"/>
  <path id="Path_118" data-name="Path 118" d="M43.363,43.133c-.133,0-.133-.133-.266-.133l-1.065,2.264h0l-.4.133L40.3,47.927l.666-.133.266.666,1.2-2.53-.133-.4Z" transform="translate(13.366 14.261)" fill="#fff"/>
  <path id="Path_119" data-name="Path 119" d="M45.8,40.894a15.625,15.625,0,0,1,1.465-.666l4.128-2.663V38.1l1.465-1.6-2.264.666.533.133-4.394,2.93c-.4.266-.666.533-.932.666" transform="translate(15.19 12.105)" fill="#fff"/>
  <path id="Path_120" data-name="Path 120" d="M43.162,42.7v-.4L41.7,43.9h-.4l-2,2h.666l.133.533,1.731-2.264.266-.133Z" transform="translate(13.034 14.029)" fill="#fff"/>
  <path id="Path_121" data-name="Path 121" d="M44.2,42.654a2.048,2.048,0,0,1,.8-.533l7.191-7.857.133.533,1.065-2L51.524,34h.533L44.6,42.255c-.266.266-.266.4-.4.4" transform="translate(14.659 10.878)" fill="#fff"/>
  <path id="Path_122" data-name="Path 122" d="M40.063,44.963,42.727,43.1a4.381,4.381,0,0,1,.8-.8L40.2,44.564h0l-.4-.133h-.266L37.4,45.762l.666.133.133.4L39.93,44.83Z" transform="translate(12.404 14.029)" fill="#fff"/>
  <path id="Path_123" data-name="Path 123" d="M37.966,45.3l1.065-.666,1.065-.666h.4s2.4-1.465,3.063-1.864h0l-3.2,1.6-.4-.133L37.3,44.63l.533.266Z" transform="translate(12.371 13.963)" fill="#fff"/>
  <path id="Path_124" data-name="Path 124" d="M20.457,40.9c-.266,0-.8,0-.932.133s-.133.266,0,.666.133.4.4.533h.266v.133c0,.133-.133.266.133.533s.4.4.666.266c.133,0,.133-.133.266-.133,0,.133,0,.133-.133.266,0,.266.133.4.4.533q.8.2.8,0c.266-.4.133-.932,0-.932v.533a.425.425,0,0,1-.4.4c-.133,0-.4-.133-.533-.133a.25.25,0,0,1,0-.4c0-.133.133-.133.133-.266-.133,0-.266.133-.4.266a.25.25,0,0,1-.4,0c-.133-.133-.266-.266-.266-.4-.133-.266.266-.4.4-.533-.4,0-.4.133-.666.133s-.4-.533-.4-.666a.286.286,0,0,1,.266-.266h.4" transform="translate(6.443 13.565)" fill="#fff"/>
  <path id="Path_125" data-name="Path 125" d="M16.1,38.812h0a3.555,3.555,0,0,0-2.4-.4,5.987,5.987,0,0,1,2.4.4" transform="translate(4.544 12.723)" fill="#fff"/>
  <path id="Path_126" data-name="Path 126" d="M15.9,43.357a4.457,4.457,0,0,1,1.332-2.264c.533-.4.8-.533.4-.133a10.427,10.427,0,0,0-1.731,2.4" transform="translate(5.273 13.505)" fill="#fff"/>
  <path id="Path_127" data-name="Path 127" d="M17.027,45.162a4.171,4.171,0,0,1,.266-2.53,3.8,3.8,0,0,1,.932-1.332,12.688,12.688,0,0,0-1.2,3.862" transform="translate(5.611 13.698)" fill="#fff"/>
  <path id="Path_128" data-name="Path 128" d="M15.532,37.1c0-.266-.266-.4-.533-.4s-.4.266-.4.533.266.4.533.4.533-.266.4-.533" transform="translate(4.842 12.172)" fill="#fff"/>
  <path id="Path_129" data-name="Path 129" d="M18.964,38.064a12.829,12.829,0,0,1,0-2.264,3.576,3.576,0,0,0-1.332,4.128H17.5c-.266,0-.4.266-.4.533s.266.4.533.4.4-.266.4-.533a.286.286,0,0,0-.266-.266,4.13,4.13,0,0,1,.533-3.2,9.6,9.6,0,0,0-.266,3.6,2.786,2.786,0,0,0,.533-.8c0,.266.133.4.133.666a3.352,3.352,0,0,1,1.6-2.93,7.544,7.544,0,0,0-1.465,3.2c.666-.8,2-1.065,2.131-3.995a3.591,3.591,0,0,0-2,1.465" transform="translate(5.671 11.874)" fill="#fff"/>
  <path id="Path_130" data-name="Path 130" d="M19.465,39.908a.466.466,0,0,0-.666-.4c-.266,0-.4.266-.4.666,0,.266.4.4.666.4a.732.732,0,0,0,.4-.666" transform="translate(6.103 13.092)" fill="#fff"/>
  <path id="Path_131" data-name="Path 131" d="M19.274,41.108a.549.549,0,1,0-.4.666c.4-.133.533-.4.4-.666" transform="translate(6.027 13.49)" fill="#fff"/>
  <path id="Path_132" data-name="Path 132" d="M17.211,35.2a3.189,3.189,0,0,0-1.2,2.93h-.133c-.266,0-.4.266-.266.533,0,.266.266.4.533.266h.133l.4.8c-.133-.266-.133-.666-.266-1.065v-.133h0a4.081,4.081,0,0,1,.533-2.264,11.555,11.555,0,0,0-.133,3.729c.133-1.2,1.864-1.731.4-4.794" transform="translate(5.161 11.674)" fill="#fff"/>
  <path id="Path_133" data-name="Path 133" d="M20.212,40.479c0-.266-.266-.4-.533-.266-.266,0-.4.266-.266.533,0,.266.266.4.533.266a1.01,1.01,0,0,0,.266-.533" transform="translate(6.421 13.32)" fill="#fff"/>
  <path id="Path_134" data-name="Path 134" d="M18.479,40.379c0-.266-.266-.4-.4-.266-.266,0-.4.266-.266.4,0,.266.266.4.4.266.133,0,.266-.133.266-.4" transform="translate(5.891 13.287)" fill="#fff"/>
  <path id="Path_135" data-name="Path 135" d="M15.13,36.864c0-.133-.133-.266-.4-.266A3.838,3.838,0,0,0,12.2,35a8.357,8.357,0,0,1,2.4,1.6c-.133,0-.266.266-.266.4s.266.266.4.266a.353.353,0,0,0,.4-.4" transform="translate(4.046 11.608)" fill="#fff"/>
  <path id="Path_136" data-name="Path 136" d="M15,35.4c0-.266-.266-.4-.533-.4h0A3.813,3.813,0,0,0,12.6,32.2a13.05,13.05,0,0,1,1.731,2.93.692.692,0,0,0-.266.533c0,.266.266.4.533.4.4-.133.533-.4.4-.666" transform="translate(4.179 10.68)" fill="#fff"/>
  <path id="Path_137" data-name="Path 137" d="M16.2,38.2c0-.133-.266-.266-.4-.266s-.133.133-.266.133A3.569,3.569,0,0,0,13,37a11.09,11.09,0,0,1,2.4,1.065v.266c0,.133.266.266.4.266a.353.353,0,0,0,.4-.4" transform="translate(4.312 12.271)" fill="#fff"/>
  <path id="Path_138" data-name="Path 138" d="M16.332,39.1c0-.266-.266-.4-.533-.4s-.4.266-.4.533.266.4.533.4.533-.266.4-.533" transform="translate(5.108 12.835)" fill="#fff"/>
  <path id="Path_139" data-name="Path 139" d="M17.6,39.666c0-.133-.266-.266-.4-.266a.465.465,0,0,0-.266.133,4.631,4.631,0,0,0-2.93.533,11.876,11.876,0,0,1,2.93-.4h0V39.8c0,.133.266.266.4.266s.266-.133.266-.4" transform="translate(4.643 13.067)" fill="#fff"/>
  <path id="Path_140" data-name="Path 140" d="M18.3,40.2c0-.266-.266-.4-.533-.4s-.4.266-.4.533h0A3.308,3.308,0,0,0,14.7,41.4a13.854,13.854,0,0,1,2.663-1.065h0c0,.266.266.4.533.266a.353.353,0,0,0,.4-.4" transform="translate(4.875 13.2)" fill="#fff"/>
  <path id="Path_141" data-name="Path 141" d="M15.011,37.528c-.133-.8.266-3.063,1.065-3.462a13.186,13.186,0,0,0-1.065,3.462M16.476,33.4a3.207,3.207,0,0,0-1.6,4.261c.8-1.065,2.264-1.332,1.6-4.261" transform="translate(4.831 11.078)" fill="#fff"/>
  <path id="Path_142" data-name="Path 142" d="M15.2,31.1a3.8,3.8,0,0,0-1.6,1.864,1.838,1.838,0,0,1,.4.533,4.113,4.113,0,0,1,.932-1.864,7.4,7.4,0,0,0-.8,2.264,4.731,4.731,0,0,1,.266,1.332,4.111,4.111,0,0,0,.8-4.128" transform="translate(4.511 10.314)" fill="#fff"/>
  <path id="Path_143" data-name="Path 143" d="M22.233,41.8a9.581,9.581,0,0,1,3.6,5.46c-.266-.133-.8-.4-1.065-.266A6.967,6.967,0,0,0,22.1,42.466c0-.4,0-.533.133-.666" transform="translate(7.33 13.863)" fill="#fff"/>
  <path id="Path_144" data-name="Path 144" d="M20.7,41.433c.133-.133.533-.133.666-.133a1.979,1.979,0,0,0-.133.8c-.4,0-.533-.4-.533-.666" transform="translate(6.865 13.698)" fill="#fff"/>
  <path id="Path_145" data-name="Path 145" d="M21.3,41.5c.266,0,.4-.133.4-.266s.266-.266.266,0,0,.266-.133.4c-.133-.133-.266,0-.533-.133" transform="translate(7.064 13.626)" fill="#fff"/>
  <path id="Path_146" data-name="Path 146" d="M21.5,41.7c0,.133-.133.266-.133.4l-.266.266c.133.133.266.133.533.133.133,0,.133,0,.133-.133-.133-.133-.133-.533-.266-.666" transform="translate(6.998 13.83)" fill="#fff"/>
</svg>
