<svg xmlns="http://www.w3.org/2000/svg" viewBox="-678.923 967.672 164.704 153.57" width="165" height="154"><defs><style>.a,.y{fill:#fff;}.a{opacity:0.1;}.ac,.b,.d{fill:#25282a;}.b{opacity:0.5;}.c{fill:#003653;}.d{opacity:0.65;}.e{fill:#003865;}.f{fill:#d4c3bc;opacity:0.6;}.g{fill:#658d1b;}.h,.w{fill:#cbbaa4;}.h,.o{opacity:0.81;}.i{fill:#a3a381;}.j{fill:#a7a8aa;}.k{fill:#edeeee;}.l{fill:#a4dbe8;}.m{fill:#c8e9f1;}.n{fill:#73a89e;opacity:0.43;}.o{fill:#ccc;}.p{fill:#a3bb76;}.q{fill:#4d4d4d;}.r{fill:#9e9e9e;}.s{fill:#f8e3c3;}.t{fill:#d2c3b3;}.u{fill:#3e4c4b;}.v{fill:#f9ca4b;}.w{opacity:0.49;}.x{fill:#63666a;}.y{opacity:0.25;}.z{fill:#3389b8;}.aa{opacity:0.51;}.ab{opacity:0.34;}.ac{opacity:0.27;}</style></defs><g transform="translate(-1489 278)"><circle class="a" cx="76.785" cy="76.785" r="76.785" transform="translate(814 689.672)"/><g transform="translate(744.877 563.729)"><g transform="translate(65.2 151)"><path class="b" d="M229.9,420.734c0,1.947-33.864,3.534-75.662,3.534S65.2,422.682,65.2,420.734s47.244-3.534,89.042-3.534S229.9,418.787,229.9,420.734Z" transform="translate(-65.2 -321.198)"/><rect class="c" width="9.845" height="85.544" transform="translate(24.019 11.829)"/><rect class="d" width="9.845" height="50.85" transform="translate(24.019 46.486)"/><rect class="c" width="9.845" height="85.544" transform="translate(130.768 11.829)"/><rect class="d" width="9.882" height="50.85" transform="translate(130.768 46.486)"/><rect class="e" width="96.904" height="9.377" transform="translate(33.864 16.95)"/><path class="f" d="M171.254,207.377H159.1V198h8.223Z" transform="translate(-125.236 -181.05)"/><path class="f" d="M413.286,207.377h-3.138L405.1,198h8.186Z" transform="translate(-282.519 -181.05)"/><path class="g" d="M359.8,165.5v86.662h16.553V165.5Zm5.085,7.1a2.308,2.308,0,1,1,0-4.616h0a2.308,2.308,0,0,1,0,4.616Z" transform="translate(-253.556 -160.271)"/><path class="h" d="M359.8,165.5v86.662h8.295V165.5Zm5.085,7.1a2.308,2.308,0,1,1,0-4.616h0a2.308,2.308,0,0,1,0,4.616Z" transform="translate(-253.556 -160.271)"/><rect class="i" width="5.698" height="1.984" transform="translate(117.135 9.052)"/><rect class="i" width="4.472" height="1.551" transform="translate(118.326 13.127)"/><rect class="i" width="4.472" height="1.551" transform="translate(118.326 17.022)"/><rect class="i" width="4.472" height="1.551" transform="translate(118.326 20.917)"/><rect class="i" width="5.698" height="1.984" transform="translate(117.135 24.596)"/><rect class="i" width="4.472" height="1.551" transform="translate(118.326 28.671)"/><rect class="i" width="4.472" height="1.551" transform="translate(118.326 32.566)"/><rect class="i" width="4.472" height="1.551" transform="translate(118.326 36.425)"/><rect class="i" width="5.698" height="1.984" transform="translate(117.135 40.103)"/><rect class="i" width="4.472" height="1.551" transform="translate(118.326 44.214)"/><rect class="i" width="4.472" height="1.551" transform="translate(118.326 48.073)"/><rect class="i" width="4.472" height="1.551" transform="translate(118.326 51.968)"/><rect class="i" width="5.698" height="1.984" transform="translate(117.135 55.647)"/><rect class="i" width="4.472" height="1.551" transform="translate(118.326 59.722)"/><rect class="i" width="4.472" height="1.551" transform="translate(118.326 63.617)"/><rect class="i" width="4.472" height="1.551" transform="translate(118.326 67.476)"/><rect class="i" width="5.698" height="1.984" transform="translate(117.135 71.154)"/><rect class="i" width="5.698" height="1.984" transform="translate(117.135 86.698)"/><rect class="i" width="4.472" height="1.551" transform="translate(118.326 75.265)"/><rect class="i" width="4.472" height="1.551" transform="translate(118.326 79.124)"/><rect class="i" width="4.472" height="1.551" transform="translate(118.326 83.019)"/><path class="j" d="M298.766,151h-1.7a2.471,2.471,0,0,0-2.452,2.416v.974c-2.741-.216-5.662-.361-8.764-.361s-6.023.144-8.764.361v-.974a2.409,2.409,0,0,0-2.38-2.416h-1.7a2.416,2.416,0,0,0-2.416,2.416h0l.036,23.3a2.478,2.478,0,0,0,2.452,2.452l25.75-.036a2.471,2.471,0,0,0,2.452-2.416h0V153.38A2.582,2.582,0,0,0,298.766,151ZM276.3,175.451a1.875,1.875,0,1,1-3.751,0h0a1.875,1.875,0,1,1,3.751,0Zm23.153-.036a1.875,1.875,0,1,1-3.751,0,1.885,1.885,0,0,1,1.875-1.875,1.863,1.863,0,0,1,1.875,1.875Zm-4.8-4.147-17.527.036V160.593c2.741.216,5.662.361,8.764.361s6.023-.144,8.764-.361Z" transform="translate(-196.525 -151)"/><path class="k" d="M343.951,215.475a1.875,1.875,0,1,1-3.751,0,1.885,1.885,0,0,1,1.875-1.875,1.862,1.862,0,0,1,1.875,1.875Z" transform="translate(-241.024 -191.024)"/><path class="k" d="M279.751,215.475a1.875,1.875,0,0,1-3.751,0h0a1.875,1.875,0,0,1,3.751,0Z" transform="translate(-199.977 -191.024)"/><path class="l" d="M305.743,229.2l-3.859,3.462,2.488,2.2L301.92,237.1l2.452,2.2-2.488,2.236,2.488,2.236-2.452,2.236,2.452,2.236-2.452,2.2,2.488,2.236-2.488,2.236,2.488,2.2-2.488,2.236,2.488,2.236-2.488,2.2,2.488,2.236-2.488,2.236,2.488,2.2-2.488,2.236,2.488,2.236-2.452,2.2,2.452,2.236-2.452,2.236,2.452,2.236-2.452,2.2,2.452,2.236-2.452,2.2,3.823,3.462-19.15.036L281.4,229.236Z" transform="translate(-203.43 -200.998)"/><path class="m" d="M284.5,267.9l20.592,19.583-1.19,1.046,2.488,2.236L303.9,293l2.488,2.2-2.488,2.236,2.488,2.236-2.452,2.2,2.452,2.236-2.452,2.236,2.452,2.236-2.452,2.2,2.488,2.236-2.488,2.2,3.823,3.462h-4.544l-15.976-16.661Z" transform="translate(-205.412 -225.741)"/><path class="n" d="M305.743,229.2l-3.859,3.462,1.118.974-21.386-1.8-.216-2.6Z" transform="translate(-203.43 -200.998)"/><path class="o" d="M285.891,160.982v-6.852h0c-3.1,0-6.023.144-8.764.361v-.974a2.424,2.424,0,0,0-2.452-2.416h-1.659a2.424,2.424,0,0,0-2.416,2.452l.036,23.3a2.455,2.455,0,0,0,2.452,2.452h12.839v-7.934h-8.764V160.657C279.868,160.873,282.79,160.982,285.891,160.982Zm-11.468,16.409a1.875,1.875,0,1,1,1.875-1.875h0a1.863,1.863,0,0,1-1.875,1.875Z" transform="translate(-196.525 -151.064)"/><rect class="p" width="11.288" height="48.109" transform="translate(60.155 27.012)"/><rect class="g" width="5.626" height="48.109" transform="translate(60.155 27.012)"/><path class="q" d="M245.375,203.746h-1.19l-.721,1.731-.685-1.731h-1.406l-.469,1.01-.5-1.01h-1.3l.541-1.551.469-1.37v-.036c.144-.216.18-.289.361-.289H244c.18,0,.216.072.361.289v.036l.469,1.406Z" transform="translate(-176.385 -182.648)"/><path class="r" d="M242.229,200.5v3.246h-.757l-.469,1.01-.5-1.01h-1.3l.541-1.551.469-1.37v-.036c.144-.216.18-.289.361-.289Z" transform="translate(-176.449 -182.648)"/><path class="s" d="M243.288,212.537H232L235.1,205l.036.072.757,1.551.5,1.01.469-1.01.757-1.623.649,1.623.685,1.695.721-1.695.649-1.551.036-.072Z" transform="translate(-171.845 -185.526)"/><path class="t" d="M253.262,212.537H247.6V205l.649,1.623.685,1.695.721-1.695.649-1.551.036-.072Z" transform="translate(-181.819 -185.526)"/><rect class="u" width="10.062" height="9.593" transform="translate(44.863 50.814)"/><path class="v" d="M198.6,349.18a3.2,3.2,0,0,1-2.957,3.39h-6.888a3.2,3.2,0,0,1-2.957-3.39V318.49a3.2,3.2,0,0,1,2.957-3.39h6.888a3.2,3.2,0,0,1,2.957,3.39Z" transform="translate(-142.307 -255.919)"/><path class="w" d="M192.219,315.1v37.47h-3.462a3.2,3.2,0,0,1-2.957-3.39V318.49a3.2,3.2,0,0,1,2.957-3.39Z" transform="translate(-142.307 -255.919)"/><path class="x" d="M197.878,163.7v43.168a7.341,7.341,0,0,1-14.678.325V163.7Z" transform="translate(-140.645 -159.12)"/><path class="y" d="M199.67,163.7v43.168a5.087,5.087,0,1,1-10.17.288V163.7Z" transform="translate(-144.673 -159.12)"/><path class="y" d="M199.67,224.8v10.567L189.5,245.5V234.97Z" transform="translate(-144.673 -198.185)"/><path class="y" d="M199.67,188.3v6.131L189.5,204.565V198.47Z" transform="translate(-144.673 -174.848)"/><path class="k" d="M197.878,152.1v4.183H183.2V152.1h9.16l.252,1.334.361-1.334h.974l.469,2.092.541-2.092Z" transform="translate(-140.645 -151.703)"/><path class="v" d="M196.5,316.485a2.894,2.894,0,0,1-2.885,2.885H181.285a2.894,2.894,0,0,1-2.885-2.885h0a2.894,2.894,0,0,1,2.885-2.885h12.334a2.826,2.826,0,0,1,2.885,2.885Z" transform="translate(-137.576 -254.96)"/><path class="y" d="M196.568,316.548H178.5a2.872,2.872,0,0,1,.866-2.02,2.836,2.836,0,0,1,2.02-.829h12.334A2.81,2.81,0,0,1,196.568,316.548Z" transform="translate(-137.64 -255.023)"/><path class="h" d="M196.5,321.6a2.894,2.894,0,0,1-2.885,2.885H181.285A2.894,2.894,0,0,1,178.4,321.6Z" transform="translate(-137.576 -260.075)"/><rect class="e" width="96.904" height="14.389" transform="translate(33.864 82.947)"/><rect class="z" width="96.904" height="2.561" transform="translate(33.864 80.386)"/><rect class="e" width="96.904" height="14.353" transform="translate(33.864 65.997)"/><rect class="z" width="96.904" height="2.597" transform="translate(33.864 63.436)"/><rect class="e" width="96.904" height="14.353" transform="translate(33.864 49.047)"/><g class="aa" transform="translate(33.9 48.975)"><g class="ab" transform="translate(6.993 0.108)"><path class="l" d="M190.062,301.453h-3.426c-.433-.216-.793-.433-1.226-.685-2.164-1.3-5.734-3.282-6.6-5.878-1.154-3.606,2.452-5.951,5.662-7.79h2.164c-3.065,1.7-7.249,4.147-5.662,7.213C182.452,297.126,186.383,300.047,190.062,301.453Z" transform="translate(-178.59 -287.1)"/></g><g class="ab" transform="translate(12.297 0.072)"><path class="l" d="M209.888,301.389h-4.76a37.854,37.854,0,0,1-9.7-5.806c-4.941-4-.361-6.816,4.4-8.583h3.246c-4.977,1.659-11.036,4.544-4.544,8.475A57.673,57.673,0,0,0,209.888,301.389Z" transform="translate(-193.297 -287)"/></g><g class="ab" transform="translate(19.692)"><path class="l" d="M246.764,286.872c-1.082,9.016-13.885,12.009-21.819,11.252-3.282-.325-11.757-2.092-11.108-6.672.252-1.7,3.57-2.633,4.8-2.957,1.659-.433,3.354-1.082,5.049-1.659h6.347a1.023,1.023,0,0,1-.469.144c-1.984.216-3.534,1.262-5.446,1.731-.288.072-10.747,2.561-6.2,5.193a18.684,18.684,0,0,0,10.927,2.561c6.167-.4,15.075-2.669,15.832-9.665Z" transform="translate(-213.802 -286.8)"/></g><g class="ab" transform="translate(35.866 0.072)"><path class="l" d="M269.488,287c-1.262,3.462-3.967,6.239-8.042,5.914-1.334-.108-3.57-.649-2.524-2.38.757-1.3,2.128-2.236,2.993-3.534H263.9a14.555,14.555,0,0,1-1.731,1.947c-.541.577-2.2,2.164-.721,2.633,3.246,1.01,5.121-1.8,5.987-4.58h2.056Z" transform="translate(-258.651 -287)"/></g><g class="ab" transform="translate(47.749 0.036)"><path class="l" d="M302.527,286.936c-1.046,3.246-1.443,7.609-3.751,9.918-.793.793-4,2.849-4.977,4.436h-2.2c.793-1.407,2.849-2.741,3.679-3.462,3.318-2.813,3.679-7.032,5.085-10.927h2.164Z" transform="translate(-291.6 -286.9)"/></g><g class="ab" transform="translate(59.727 0.108)"><path class="l" d="M332.923,301.453h-4.364a7.039,7.039,0,0,1-3.57-4.9c-.721-3.606.9-6.528,2.669-9.449h1.983c-1.587,2.452-3.21,5.157-2.669,7.862A7.75,7.75,0,0,0,332.923,301.453Z" transform="translate(-324.813 -287.1)"/></g><g class="ab" transform="translate(66.713 0.108)"><path class="l" d="M355.66,301.453H352.2c-3.534-1.659-7.393-3.678-7.97-7.826-.4-2.849,2.2-4.328,3.462-6.528h2.164c-.757,1.262-1.911,2.344-2.813,3.931-2.921,5.157,4.941,8.475,8.439,10.134A.205.205,0,0,1,355.66,301.453Z" transform="translate(-344.187 -287.1)"/></g><g class="ab" transform="translate(72.086 0.108)"><path class="l" d="M365.4,297.7c-2.561.036-5.77-1.623-6.239-4.4-.4-2.2.793-4.292,2.02-6.2h2.128a11.906,11.906,0,0,0-1.947,4.183c-.325,2.164,1.839,5.265,4.292,4.977,1.8-.216-.108-3.39-.216-4.328-.252-1.7.289-3.246.5-4.833H368a10.066,10.066,0,0,0-.361,4.256c.252,1.082.829,2.128,1.01,3.21C368.9,296.549,367.349,297.667,365.4,297.7Z" transform="translate(-359.085 -287.1)"/></g><g class="ab" transform="translate(83.308 0.072)"><path class="l" d="M394.888,296.16a16.015,16.015,0,0,1-1.839,4.436,7.528,7.528,0,0,1-.721.793H390.2c1.37-1.262,2.02-3.318,2.488-5.049.974-3.282-.613-6.311-1.767-9.341h2.416C394.492,289.921,395.934,292.951,394.888,296.16Z" transform="translate(-390.2 -287)"/></g><g class="ab" transform="translate(89.042 2.452)"><path class="l" d="M413.926,293.6v.685c-3.282,1.334-4.436,8.114-5.914,11.288H406.1C408.444,301.1,408.985,295.187,413.926,293.6Z" transform="translate(-406.1 -293.6)"/></g><g class="ab" transform="translate(0 0.072)"><path class="l" d="M163.564,287a13,13,0,0,1-4.364,5.734V294c2.633-1.839,5.085-3.787,6.347-7Z" transform="translate(-159.2 -287)"/></g><g class="ab" transform="translate(0.068 17.058)"><path class="l" d="M167.544,345.893c-.4.4-2.561,1.659-3.57,2.561H161.2c.577-1.046,2.38-1.839,3.282-2.38,5.446-3.354.361-10.314-4.4-11.288-.5-.108-.721-.4-.685-.685h4.075a11.2,11.2,0,0,1,5.7,7.321A4.992,4.992,0,0,1,167.544,345.893Z" transform="translate(-159.389 -334.1)"/></g><g class="ab" transform="translate(8.727 17.058)"><path class="l" d="M189.242,348.453h-2.813a4.605,4.605,0,0,1-.721-3.39c.252-1.984,1.01-4.039.361-5.987A19.447,19.447,0,0,0,183.4,334.1H186c1.659,2.452,2.957,4.977,2.308,8.042C187.8,344.595,187.439,347.047,189.242,348.453Z" transform="translate(-183.4 -334.1)"/></g><g class="ab" transform="translate(14.114 17.022)"><path class="l" d="M212.857,347.019a6.948,6.948,0,0,0,2.128,1.37H211.45a18.769,18.769,0,0,1-2.488-3.1c-2.633-4-5.878-8.872-10.422-10.927-.216-.072-.252-.216-.144-.361h3.174a28.179,28.179,0,0,1,5.878,5.482C209.431,341.718,210.693,345.036,212.857,347.019Z" transform="translate(-198.336 -334)"/><path class="l" d="M246.6,381h1.334a.112.112,0,0,1-.072.036A4.936,4.936,0,0,1,246.6,381Z" transform="translate(-229.194 -364.05)"/><path class="l" d="M263.972,334a9.223,9.223,0,0,1-2.344,2.813c-3.174,2.669-4.472,5.626-6.131,9.3-.361.757-.721,1.515-1.154,2.236H250.7c2.344-1.01,3.606-5.085,4.9-7.141,1.623-2.633,5.049-4.508,6.347-7.213Z" transform="translate(-231.816 -334)"/></g><g class="ab" transform="translate(22.612 17.022)"><path class="l" d="M237.191,334c-2.128,2.741-.144,10.6-5.734,9.737-4.256-.685-7.429-6.419-9.557-9.737h2.6c1.587,2.272,7.213,9.845,8.15,8.727,1.984-2.344.974-6.419,2.849-8.727Z" transform="translate(-221.9 -334)"/></g><g class="ab" transform="translate(45.18 17.058)"><path class="l" d="M287.371,348.453h-2.561c-1.551-3.679,2.7-10.819,4.9-14.353h2.092C289.679,337.454,284.63,345.568,287.371,348.453Z" transform="translate(-284.478 -334.1)"/></g><g class="ab" transform="translate(51.254 17.022)"><path class="l" d="M309.572,348.389H305.93c-2.272-1.3-4.328-3.246-4.58-5.41-.4-3.823,3.462-5.77,4.472-8.98h2.02c-1.046,2.561-4.075,4.256-4.328,7.141C303.225,344.314,306.579,347.091,309.572,348.389Z" transform="translate(-301.321 -334)"/></g><g class="ab" transform="translate(58.968 17.022)"><path class="l" d="M327.358,343.773a26.116,26.116,0,0,0,8.078,4.616h-4.688a15.437,15.437,0,0,1-6.059-4.508c-2.38-3.282-3.029-7.393.4-9.882H327C323.752,336.272,324.473,341.285,327.358,343.773Z" transform="translate(-322.71 -334)"/><path class="l" d="M378.3,343.99a9,9,0,0,1-3.426,4.4h-2.488c3.029-1.37,4.941-4.364,2.957-7.9A16.037,16.037,0,0,0,368.6,334h3.354C375.488,336.272,379.491,340.275,378.3,343.99Z" transform="translate(-352.05 -334)"/></g><g class="ab" transform="translate(64.264 17.022)"><path class="l" d="M348.972,344.1c-2.128,1.587-5.41.974-7.393-.469-1.37-.974-3.534-2.488-4-4.219-.5-1.839.144-3.606.649-5.41h2.056c-.469,1.551-1.154,3.354-.5,4.8a10.554,10.554,0,0,0,3.895,4.075c.721.433,3.931,2.38,3.823.5a4.938,4.938,0,0,0-.577-1.875c-.9-1.8-3.859-5.157-3.1-7.5h1.947C345.294,337.138,351.966,341.826,348.972,344.1Z" transform="translate(-337.394 -334)"/></g><g class="ab" transform="translate(85.003 17.058)"><path class="l" d="M406.765,344.7V346.4c-5.482-1.479-9.99-7.5-11.865-12.3h2.38a17.281,17.281,0,0,0,5.337,7.682A37.264,37.264,0,0,0,406.765,344.7Z" transform="translate(-394.9 -334.1)"/></g><g class="ab" transform="translate(92.756 17.022)"><path class="l" d="M420.511,336.669v3.39A30.314,30.314,0,0,1,416.4,334h2.524C419.465,334.9,419.97,335.8,420.511,336.669Z" transform="translate(-416.4 -334)"/></g><g class="ab" transform="translate(79.809 38.156)"><path class="l" d="M397.558,392.6v1.226c-6.78.938-10.206,5.373-14.714,8.98H380.5a23.6,23.6,0,0,0,2.02-1.767,41.005,41.005,0,0,1,6.383-5.626A19.641,19.641,0,0,1,397.558,392.6Z" transform="translate(-380.5 -392.6)"/></g><g class="ab" transform="translate(66.466 33.972)"><path class="l" d="M368.492,381c-7.682,3.931-13.127,10.675-20.989,14.389h-4c5.7-1.983,10.6-5.41,15.616-9.954A26.771,26.771,0,0,1,366,381Z" transform="translate(-343.5 -381)"/></g><g class="ab" transform="translate(49.792 33.9)"><path class="l" d="M302.363,380.872c-1.226,2.38-4.472,5.951-2.6,8.547,4.436,6.167,12.514-.433,16.806-2.633,3.642-1.839,7.141-4.4,10.927-5.951h2.02c-5.59,1.7-12.009,6.311-16.95,9.124a22.345,22.345,0,0,1-8.511,2.921c-1.731.216-4.472-.144-5.59-1.731-2.921-4,.18-6.6,1.911-10.314l.036-.036h1.947Z" transform="translate(-297.265 -380.8)"/></g><g class="ab" transform="translate(53.848 33.972)"><path class="l" d="M319.364,381h2.993c-2.056,1.406-3.174,3.354-5.085,5.121A8.09,8.09,0,0,1,312.3,388c-1.046.036-3.426.072-3.715-1.37-.469-2.164,1.659-3.606,1.8-5.626h2.128a9.042,9.042,0,0,1-1.19,2.813c-1.262,2.38.721,3.1,2.777,2.38C316.515,385.328,317.6,382.659,319.364,381Z" transform="translate(-308.513 -381)"/></g><g class="ab" transform="translate(42.579 33.972)"><path class="l" d="M280.741,388.1c-.938,2.488-1.587,5.085-.866,7.285h-2.416a7.777,7.777,0,0,1,.108-3.859c.685-2.741,4-8.042,1.479-10.386a.187.187,0,0,1-.072-.144h2.741C282.977,383.092,281.57,386.013,280.741,388.1Z" transform="translate(-277.267 -381)"/></g><g class="ab" transform="translate(27.689 34.008)"><path class="l" d="M246.156,388.637c-1.587,1.226-8.259,4.111-7.9,6.852h-2.272c-.4-5.265,14.389-6.96,11.108-14.389h2.344C250.34,384.057,248.825,386.618,246.156,388.637Z" transform="translate(-235.978 -381.1)"/></g><g class="ab" transform="translate(20.412 33.936)"><path class="l" d="M232.57,380.936a8.766,8.766,0,0,1-7.934,6.6c-4.472.072-7.141-2.524-8.8-6.492-.036-.036-.036-.072-.036-.144h2.416c.938,2.128,2.416,4.472,4.833,4.977a6.243,6.243,0,0,0,7.357-4.833.132.132,0,0,1,.036-.108Z" transform="translate(-215.8 -380.9)"/></g><g class="ab" transform="translate(16.66 33.972)"><path class="l" d="M213.187,395.389h-1.875a2.959,2.959,0,0,0-.108-1.587,23.286,23.286,0,0,0-3.282-5.446A10.771,10.771,0,0,1,205.4,381h2.2c.144,4.147,2.633,6.311,4.652,9.918A6.716,6.716,0,0,1,213.187,395.389Z" transform="translate(-205.396 -381)"/></g><g class="ab" transform="translate(10.531 33.972)"><path class="l" d="M196.226,395.389h-1.839c2.416-4-4.436-10.891-5.987-14.389h2.452c1.659,3.606,4.977,6.023,5.806,10.206A6.565,6.565,0,0,1,196.226,395.389Z" transform="translate(-188.4 -381)"/></g><g class="ab" transform="translate(4.364 33.972)"><path class="l" d="M175.988,390.016a8.453,8.453,0,0,1-2.741,5.374H171.3c3.642-3.931,2.056-8.836,1.839-14.245a.217.217,0,0,1,.036-.144h2.164C175.556,383.993,176.313,387.095,175.988,390.016Z" transform="translate(-171.3 -381)"/></g><g class="ab" transform="translate(0 33.972)"><path class="l" d="M165.331,381a26.014,26.014,0,0,1-1.118,3.606,8.241,8.241,0,0,1-1.406,2.669,13.386,13.386,0,0,1-3.606,2.561v-1.443a5.851,5.851,0,0,0,1.984-1.767A14.851,14.851,0,0,0,163.2,381Z" transform="translate(-159.2 -381)"/></g></g><rect class="ac" width="10.495" height="48.29" transform="translate(33.864 49.047)"/><rect class="ac" width="7.682" height="48.29" transform="translate(122.942 49.047)"/></g></g></g></svg>
