<svg xmlns="http://www.w3.org/2000/svg" width="27.91" height="18.605" viewBox="0 0 27.91 18.605">
  <g id="zDZ5OF" transform="translate(-670.309 -313.964)">
    <g id="Group_92" data-name="Group 92" transform="translate(670.309 313.964)">
      <path id="Path_151" data-name="Path 151" d="M684.249,332.568q-4.158,0-8.317,0a5.6,5.6,0,0,1-5.476-4.348,5.683,5.683,0,0,1-.139-1.238c-.013-2.472-.009-4.945-.006-7.417a5.6,5.6,0,0,1,5.607-5.6q8.346,0,16.691,0a5.6,5.6,0,0,1,5.606,5.6q.006,3.694,0,7.388a5.6,5.6,0,0,1-5.622,5.614Q688.422,332.572,684.249,332.568Zm-3.705-4.637,9.325-4.665-9.325-4.663Z" transform="translate(-670.309 -313.964)" fill="#fff"/>
    </g>
  </g>
</svg>
